<svg width="118" height="315" viewBox="0 0 118 315" fill="none" xmlns="http://www.w3.org/2000/svg">
<path d="M64.1469 3.36633C61.3603 0.208618 56.4363 0.208618 53.6497 3.36633L1.26075 62.734C-1.58819 65.9625 0.704047 71.0424 5.00977 71.0424H36.2405V123.146H81.7795V71.0424H112.787C117.093 71.0424 119.385 65.9625 116.536 62.734L64.1469 3.36633Z" fill="#808080"/>
<path d="M53.6497 312.026C56.4363 315.184 61.3603 315.184 64.1469 312.026L116.536 252.658C119.385 249.43 117.093 244.35 112.787 244.35H81.5561L81.5561 192.246L36.0171 192.246L36.0171 244.35H5.00978C0.704072 244.35 -1.58816 249.43 1.26077 252.658L53.6497 312.026Z" fill="#808080"/>
</svg>
